<svg version="1.1" id="Layer_1" xmlns="http://www.w3.org/2000/svg" xmlns:xlink="http://www.w3.org/1999/xlink" x="0px" y="0px"
	 width="90" height="100" viewBox="0 0 120 100" enable-background="new 0 0 120 100" xml:space="preserve">
<path fill="#FEFEFE" opacity="1.000000" stroke="none" 
	d="
M78.000000,101.000000 
	C52.000000,101.000000 26.500000,101.000000 1.000000,101.000000 
	C1.000000,67.666664 1.000000,34.333332 1.000000,1.000000 
	C41.000000,1.000000 81.000000,1.000000 121.000000,1.000000 
	C121.000000,34.333332 121.000000,67.666664 121.000000,101.000000 
	C106.833336,101.000000 92.666664,101.000000 78.000000,101.000000 
M44.031246,77.984612 
	C44.031246,77.984612 44.078831,77.909454 44.160976,78.665672 
	C45.785271,79.093903 47.409569,79.522133 49.003098,80.000000 
	C49.003098,80.000000 49.039047,79.951057 49.332756,80.619308 
	C50.663914,81.016708 51.995068,81.414116 53.694801,81.845955 
	C53.694801,81.845955 53.991669,82.067101 54.140911,82.793404 
	C55.498367,83.152489 56.855824,83.511566 58.627544,83.892944 
	C58.627544,83.892944 58.989120,84.096352 59.142078,84.809967 
	C61.596550,84.923058 64.051025,85.036140 66.505493,85.149223 
	C66.516907,84.828308 66.528313,84.507385 66.539726,84.186462 
	C67.730644,85.098633 68.921570,86.010803 70.539154,87.114433 
	C70.807594,87.295776 70.995552,87.539261 71.140175,88.555405 
	C72.726280,90.718643 74.039391,90.758217 75.488594,87.644234 
	C76.093590,86.779564 76.698578,85.914894 77.992729,84.820580 
	C80.413910,83.393715 76.979881,77.855225 83.007584,78.426468 
	C83.007584,82.419556 82.840172,86.337448 83.103256,90.226227 
	C83.189117,91.495483 84.396500,92.688873 85.059189,94.003212 
	C85.059189,94.003212 85.070290,93.914803 85.263809,94.430420 
	C85.586121,94.577988 85.908440,94.725563 86.637871,94.921844 
	C86.637871,94.921844 87.012741,95.087944 87.388702,95.564781 
	C88.255760,95.389763 89.122810,95.214737 90.292648,94.867432 
	C90.292648,94.867432 90.639038,94.830437 91.248032,94.728012 
	C91.521149,94.212799 91.794273,93.697594 92.030563,93.075851 
	C92.030563,93.075851 92.137146,93.039154 92.903976,92.820465 
	C93.262672,89.142090 93.515305,85.449425 94.008751,81.789215 
	C94.542732,77.828384 95.301430,73.897842 96.001625,69.997635 
	C96.001625,69.997635 95.954788,69.963379 96.607803,69.909813 
	C97.065498,69.277443 97.523193,68.645073 97.986801,67.991417 
	C97.986801,67.991417 98.002838,67.976219 98.794395,67.814919 
	C99.162117,67.304756 99.848419,66.796227 99.851044,66.284195 
	C99.920303,52.787605 100.115875,39.286110 99.804459,25.796656 
	C99.715889,21.960136 97.258995,19.274036 92.319740,20.164707 
	C92.319740,20.164707 91.993446,19.987211 91.881248,19.287167 
	C87.233749,17.549992 82.586243,15.812817 77.961823,14.042067 
	C77.961823,14.042067 77.929001,14.085680 77.836510,13.322059 
	C76.444344,12.959739 75.052177,12.597419 73.300652,12.209303 
	C73.300652,12.209303 72.976593,12.051867 72.878403,11.332936 
	C69.829163,10.285566 66.779922,9.238196 63.343079,8.145670 
	C63.343079,8.145670 62.986160,7.987916 62.571815,7.464742 
	C61.385014,7.640053 60.198215,7.815364 58.670589,8.158192 
	C58.670589,8.158192 58.294205,8.208770 57.550323,8.081809 
	C56.372261,8.741829 55.194202,9.401848 53.704552,10.226488 
	C53.704552,10.226488 53.352825,10.248323 52.544682,10.098633 
	C51.373962,10.758712 50.203243,11.418792 48.727226,12.245563 
	C48.727226,12.245563 48.380367,12.271683 47.632748,12.117498 
	C46.745594,12.699837 45.858440,13.282175 44.573864,14.037606 
	C44.573864,14.037606 44.145733,14.105507 43.362892,14.025695 
	C41.558525,14.946880 39.754158,15.868065 37.519150,16.965796 
	C37.519150,16.965796 37.059845,17.041010 36.289680,16.990622 
	C34.195038,17.989239 32.100395,18.987854 29.679562,20.162132 
	C29.679562,20.162132 29.313410,20.218609 28.570957,20.090979 
	C27.699673,20.689980 26.828388,21.288980 25.740631,22.361263 
	C25.623039,22.682552 25.505447,23.003841 24.879324,23.488279 
	C24.571585,23.666441 24.263845,23.844603 23.170401,24.189053 
	C22.794283,24.866348 22.093731,25.541910 22.090103,26.221197 
	C22.022017,38.965878 22.003000,51.711273 22.108286,64.455406 
	C22.115412,65.318024 23.188816,66.171837 24.053766,67.568649 
	C24.352631,68.098679 24.651495,68.628716 24.985708,69.941521 
	C26.482527,70.537910 27.979343,71.134293 29.784370,71.731194 
	C29.784370,71.731194 30.014309,71.936424 30.322411,72.595947 
	C31.885542,73.052963 33.448673,73.509979 35.010998,73.996239 
	C35.010998,73.996239 35.033852,73.976891 35.129543,74.699074 
	C37.427887,75.456184 39.726231,76.213287 42.000458,77.000305 
	C42.000458,77.000305 42.020359,76.968307 42.345570,77.490494 
	C42.920227,77.631485 43.494888,77.772476 44.031246,77.984612 
z"/>
<path fill="#399EF8" opacity="1.000000" stroke="none" 
	d="
M90.639038,94.830429 
	C90.639038,94.830437 90.292648,94.867432 89.769852,94.912354 
	C88.502281,95.000824 87.757507,95.044380 87.012741,95.087944 
	C87.012741,95.087944 86.637871,94.921844 86.311363,94.662910 
	C85.680000,94.240921 85.375145,94.077858 85.070290,93.914803 
	C85.070290,93.914803 85.059189,94.003212 85.033607,93.499374 
	C85.008026,87.165047 85.008026,81.334541 85.008026,75.311127 
	C76.834358,77.022430 76.730026,77.170776 77.303574,85.050232 
	C76.698578,85.914894 76.093590,86.779564 74.855400,87.814171 
	C73.182480,87.937691 72.142754,87.891281 71.103027,87.844864 
	C70.995552,87.539261 70.807594,87.295776 70.253174,86.652527 
	C69.410126,84.773987 68.853043,83.357353 68.293350,81.934074 
	C65.961189,82.569885 63.970276,83.112663 61.763275,83.320107 
	C61.368984,81.201653 61.044312,79.419212 61.035965,77.635300 
	C60.974236,64.438644 60.975491,51.241699 61.340836,38.022057 
	C65.244133,36.623821 68.774971,35.276802 72.280663,33.867245 
	C80.559288,30.538597 88.825943,27.180191 97.115997,23.868933 
	C97.134560,23.904045 97.126968,23.983110 97.086044,24.313107 
	C97.333046,25.419710 97.620979,26.196321 97.965714,27.440346 
	C98.015968,41.263916 98.009399,54.620068 98.002838,67.976219 
	C98.002838,67.976219 97.986801,67.991417 97.667892,68.054306 
	C96.884247,68.732582 96.419518,69.347984 95.954788,69.963379 
	C95.954788,69.963379 96.001625,69.997635 95.605682,70.053253 
	C94.184113,71.693710 92.369896,73.232353 92.273872,74.871658 
	C91.920174,80.909439 92.135719,86.980568 92.137146,93.039154 
	C92.137146,93.039154 92.030563,93.075851 91.802673,93.264420 
	C91.262863,93.912140 90.950943,94.371284 90.639038,94.830429 
M80.997131,60.999485 
	C80.997131,60.999485 80.943184,60.968006 81.416367,60.777020 
	C81.600906,60.499542 81.785454,60.222065 81.998413,59.998726 
	C81.998413,59.998726 81.944511,59.969852 82.417076,59.779499 
	C82.601662,59.502682 82.786240,59.225868 82.999001,58.999607 
	C82.999001,58.999607 82.948822,58.970737 83.420090,58.779045 
	C83.604103,58.502254 83.788116,58.225464 83.999054,57.999542 
	C83.999054,57.999542 83.948486,57.972046 84.420036,57.780704 
	C84.605911,57.504890 84.791786,57.229076 84.999847,57.000397 
	C84.999847,57.000397 84.953011,56.977619 85.423042,56.780605 
	C85.605919,56.502270 85.788803,56.223934 85.998451,55.999027 
	C85.998451,55.999027 85.945244,55.971817 86.418488,55.777309 
	C86.600319,55.497101 86.782143,55.216892 86.975471,55.005558 
	C86.975471,55.005558 86.922997,54.959492 87.280685,54.847748 
	C87.363052,54.756725 87.532997,54.621380 87.513115,54.582104 
	C87.408890,54.376144 87.256584,54.194519 86.790794,53.421280 
	C84.523926,54.947960 82.257057,56.474640 79.549667,58.197960 
	C79.276688,58.389187 79.084389,58.641838 78.624222,59.283279 
	C78.395576,59.505577 78.174576,59.735226 77.533112,60.202072 
	C77.264099,60.406170 77.087273,60.671673 76.792389,61.432575 
	C76.596352,61.702576 76.339569,61.888840 75.564911,62.194275 
	C75.278656,62.392719 75.088135,62.659527 75.000000,63.000000 
	C75.000000,63.000000 74.994576,62.993385 74.536514,63.222557 
	C74.364670,63.510902 74.192825,63.799248 74.067291,64.691994 
	C74.650360,65.107468 75.233421,65.522949 76.337990,65.788765 
	C76.548935,65.506638 76.759880,65.224510 76.997635,64.998451 
	C76.997635,64.998451 76.942284,64.970200 77.432404,64.757523 
	C77.610817,64.457237 77.789223,64.156952 78.206444,63.363995 
	C78.755699,62.897884 79.304947,62.431774 80.361732,61.794418 
	C80.564171,61.510849 80.766602,61.227283 80.997131,60.999485 
M76.995621,53.995399 
	C76.995621,53.995399 77.014458,53.993118 77.454338,53.789291 
	C77.729233,53.591488 77.907028,53.328121 77.998169,52.998180 
	C77.998169,52.998180 77.999092,52.987713 78.443588,52.794209 
	C78.721657,52.601852 78.905403,52.342628 78.995682,51.995686 
	C78.995682,51.995686 79.016533,51.994884 79.453896,51.793407 
	C79.727112,51.598534 79.906982,51.338966 79.995590,50.995670 
	C79.995590,50.995670 80.014595,50.993450 80.453537,50.792252 
	C80.727791,50.596504 80.906776,50.335430 80.996140,49.996155 
	C80.996140,49.996155 81.008965,49.990463 81.449722,49.793407 
	C81.725410,49.599571 81.905685,49.339565 81.994652,48.994640 
	C81.994652,48.994640 82.013397,48.990562 82.452415,48.793457 
	C82.726822,48.599903 82.906525,48.340683 82.994347,47.994270 
	C82.994347,47.994270 83.015892,47.991566 83.456100,47.788902 
	C83.730736,47.590649 83.907600,47.326832 83.998474,46.998383 
	C83.998474,46.998383 83.997360,46.986668 84.443504,46.793171 
	C84.722733,46.599792 84.905479,46.338840 84.996162,45.996407 
	C84.996162,45.996407 85.009949,45.991676 85.451797,45.789860 
	C85.726845,45.592258 85.907303,45.329651 85.999084,44.999237 
	C85.999084,44.999237 86.001099,44.993057 86.321365,44.882343 
	C86.631752,44.635868 86.639824,44.366550 86.015739,43.480728 
	C85.381714,43.329334 84.747688,43.177940 83.619980,43.206791 
	C83.420135,43.485237 83.220284,43.763687 83.000084,43.998837 
	C83.000084,43.998837 83.042450,44.021088 82.578186,44.215637 
	C82.391121,44.486706 82.204048,44.757774 81.999718,44.999142 
	C81.999718,44.999142 82.029083,45.017124 81.569839,45.214153 
	C81.281349,45.413868 81.098976,45.684978 81.000000,45.999763 
	C81.000000,45.999763 81.027740,46.022785 80.568375,46.215961 
	C80.280510,46.415287 80.099174,46.685989 80.000114,46.999847 
	C80.000114,46.999847 80.028381,47.024525 79.569252,47.213730 
	C79.281151,47.410099 79.097855,47.678146 79.000000,48.000000 
	C79.000000,48.000000 79.017982,48.019424 78.562820,48.213509 
	C78.277870,48.411766 78.096840,48.680134 78.000000,49.000000 
	C78.000000,49.000000 78.018745,49.019730 77.563362,49.213451 
	C77.278252,49.411442 77.096817,49.679592 77.000000,50.000000 
	C77.000000,50.000000 77.018005,50.019089 76.563721,50.211929 
	C76.279221,50.408550 76.096825,50.675060 76.000305,51.000305 
	C76.000305,51.000305 76.011581,51.016354 75.544174,51.234924 
	C75.371544,51.525379 75.198906,51.815838 74.844597,52.515385 
	C74.666412,52.770611 74.428223,52.942856 73.612595,53.228287 
	C73.421104,53.533623 73.229622,53.838959 73.133156,54.716541 
	C74.075928,54.809132 75.018692,54.901726 76.420654,54.804146 
	C76.709854,54.612141 76.900581,54.348812 76.995621,53.995399 
M83.589943,52.518730 
	C83.589943,52.518730 83.479004,52.585335 83.589943,52.518730 
z"/>
<path fill="#1D84F9" opacity="1.000000" stroke="none" 
	d="
M60.956944,38.044846 
	C60.975491,51.241699 60.974236,64.438644 61.035965,77.635300 
	C61.044312,79.419212 61.368984,81.201653 61.398071,83.427353 
	C60.495682,83.945396 59.742401,84.020874 58.989120,84.096352 
	C58.989120,84.096352 58.627544,83.892944 58.211353,83.614143 
	C56.527332,82.912590 55.259502,82.489845 53.991669,82.067101 
	C53.991669,82.067101 53.694801,81.845955 53.299385,81.553452 
	C51.615665,80.824310 50.327354,80.387688 49.039047,79.951057 
	C49.039047,79.951057 49.003098,80.000000 48.814564,79.700714 
	C47.110298,78.904106 45.594566,78.406776 44.078831,77.909454 
	C44.078831,77.909454 44.031246,77.984612 43.886261,77.692276 
	C43.167637,77.256065 42.593998,77.112183 42.020359,76.968307 
	C42.020359,76.968307 42.000458,77.000305 41.784489,76.731339 
	C39.390297,75.633881 37.212074,74.805382 35.033852,73.976891 
	C35.033852,73.976891 35.010998,73.996239 34.805191,73.707054 
	C33.071026,72.924057 31.542669,72.430237 30.014309,71.936417 
	C30.014309,71.936424 29.784370,71.731194 29.421062,71.469589 
	C27.688623,70.524902 26.319490,69.841820 24.950359,69.158745 
	C24.651495,68.628716 24.352631,68.098679 23.992840,66.835297 
	C23.939978,52.075550 23.948042,38.049156 23.956106,24.022762 
	C24.263845,23.844603 24.571585,23.666441 25.506504,23.633072 
	C37.741440,28.533525 49.349190,33.289185 60.956944,38.044846 
z"/>
<path fill="#50B1F9" opacity="1.000000" stroke="none" 
	d="
M61.340836,38.022057 
	C49.349190,33.289185 37.741440,28.533525 25.760769,23.551498 
	C25.505447,23.003841 25.623039,22.682552 26.173071,22.129189 
	C27.508144,21.337612 28.410776,20.778111 29.313410,20.218609 
	C29.313410,20.218609 29.679562,20.162132 30.207169,20.084135 
	C32.843132,19.017761 34.951488,18.029387 37.059845,17.041010 
	C37.059845,17.041010 37.519150,16.965796 38.082478,16.905457 
	C40.479115,15.931914 42.312424,15.018711 44.145733,14.105507 
	C44.145733,14.105507 44.573864,14.037606 45.097366,13.974880 
	C46.540703,13.365331 47.460533,12.818506 48.380367,12.271683 
	C48.380367,12.271683 48.727226,12.245563 49.226204,12.167339 
	C50.934399,11.475517 52.143612,10.861919 53.352825,10.248322 
	C53.352825,10.248323 53.704552,10.226488 54.206947,10.147881 
	C55.904301,9.449106 57.099255,8.828939 58.294205,8.208771 
	C58.294205,8.208770 58.670589,8.158192 59.237179,8.115150 
	C60.864567,8.044045 61.925362,8.015981 62.986160,7.987916 
	C62.986160,7.987916 63.343079,8.145670 63.758724,8.445356 
	C67.108444,9.847317 70.042519,10.949592 72.976593,12.051867 
	C72.976593,12.051867 73.300652,12.209303 73.704025,12.487455 
	C75.381264,13.205632 76.655128,13.645656 77.929001,14.085680 
	C77.929001,14.085680 77.961823,14.042067 78.156929,14.338499 
	C82.899170,16.419025 87.446312,18.203117 91.993446,19.987209 
	C91.993446,19.987211 92.319740,20.164707 92.705658,20.451471 
	C94.426865,21.770098 95.762154,22.801958 97.097443,23.833820 
	C88.825943,27.180191 80.559288,30.538597 72.280663,33.867245 
	C68.774971,35.276802 65.244133,36.623821 61.340836,38.022057 
z"/>
<path fill="#D5F4FF" opacity="1.000000" stroke="none" 
	d="
M97.115997,23.868931 
	C95.762154,22.801958 94.426865,21.770098 92.889084,20.480612 
	C97.258995,19.274036 99.715889,21.960136 99.804459,25.796656 
	C100.115875,39.286110 99.920303,52.787605 99.851044,66.284195 
	C99.848419,66.796227 99.162117,67.304756 98.398621,67.895569 
	C98.009399,54.620068 98.015968,41.263916 98.037140,27.109335 
	C97.743484,25.534975 97.435226,24.759043 97.126968,23.983110 
	C97.126968,23.983110 97.134560,23.904045 97.115997,23.868931 
z"/>
<path fill="#D5F4FF" opacity="1.000000" stroke="none" 
	d="
M23.563253,24.105907 
	C23.948042,38.049156 23.939978,52.075550 23.849112,66.565842 
	C23.188816,66.171837 22.115412,65.318024 22.108286,64.455406 
	C22.003000,51.711273 22.022017,38.965878 22.090103,26.221197 
	C22.093731,25.541910 22.794283,24.866348 23.563253,24.105907 
z"/>
<path fill="#D5F4FF" opacity="1.000000" stroke="none" 
	d="
M77.648148,84.935410 
	C76.730026,77.170776 76.834358,77.022430 85.008026,75.311127 
	C85.008026,81.334541 85.008026,87.165047 85.049484,93.456253 
	C84.396500,92.688873 83.189117,91.495483 83.103256,90.226227 
	C82.840172,86.337448 83.007584,82.419556 83.007584,78.426468 
	C76.979881,77.855225 80.413910,83.393715 77.648148,84.935410 
z"/>
<path fill="#D5F4FF" opacity="1.000000" stroke="none" 
	d="
M92.520561,92.929810 
	C92.135719,86.980568 91.920174,80.909439 92.273872,74.871658 
	C92.369896,73.232353 94.184113,71.693710 95.585922,70.031479 
	C95.301430,73.897842 94.542732,77.828384 94.008751,81.789215 
	C93.515305,85.449425 93.262672,89.142090 92.520561,92.929810 
z"/>
<path fill="#D5F4FF" opacity="1.000000" stroke="none" 
	d="
M91.937347,19.637188 
	C87.446312,18.203117 82.899170,16.419025 78.145386,14.355288 
	C82.586243,15.812817 87.233749,17.549992 91.937347,19.637188 
z"/>
<path fill="#D5F4FF" opacity="1.000000" stroke="none" 
	d="
M59.065598,84.453156 
	C59.742401,84.020874 60.495682,83.945396 61.614166,83.762680 
	C63.970276,83.112663 65.961189,82.569885 68.293350,81.934074 
	C68.853043,83.357353 69.410126,84.773987 70.039841,86.556793 
	C68.921570,86.010803 67.730644,85.098633 66.539726,84.186462 
	C66.528313,84.507385 66.516907,84.828308 66.505493,85.149223 
	C64.051025,85.036140 61.596550,84.923058 59.065598,84.453156 
z"/>
<path fill="#D5F4FF" opacity="1.000000" stroke="none" 
	d="
M72.927498,11.692402 
	C70.042519,10.949592 67.108444,9.847317 63.952522,8.467934 
	C66.779922,9.238196 69.829163,10.285566 72.927498,11.692402 
z"/>
<path fill="#D5F4FF" opacity="1.000000" stroke="none" 
	d="
M35.081696,74.337982 
	C37.212074,74.805382 39.390297,75.633881 41.796547,76.716385 
	C39.726231,76.213287 37.427887,75.456184 35.081696,74.337982 
z"/>
<path fill="#D5F4FF" opacity="1.000000" stroke="none" 
	d="
M36.674763,17.015816 
	C34.951488,18.029387 32.843132,19.017761 30.370264,19.996304 
	C32.100395,18.987854 34.195038,17.989239 36.674763,17.015816 
z"/>
<path fill="#D5F4FF" opacity="1.000000" stroke="none" 
	d="
M43.754311,14.065601 
	C42.312424,15.018711 40.479115,15.931914 38.297798,16.817184 
	C39.754158,15.868065 41.558525,14.946880 43.754311,14.065601 
z"/>
<path fill="#D5F4FF" opacity="1.000000" stroke="none" 
	d="
M71.121597,88.200134 
	C72.142754,87.891281 73.182480,87.937691 74.611343,88.021645 
	C74.039391,90.758217 72.726280,90.718643 71.121597,88.200134 
z"/>
<path fill="#D5F4FF" opacity="1.000000" stroke="none" 
	d="
M24.968033,69.550133 
	C26.319490,69.841820 27.688623,70.524902 29.266958,71.469330 
	C27.979343,71.134293 26.482527,70.537910 24.968033,69.550133 
z"/>
<path fill="#D5F4FF" opacity="1.000000" stroke="none" 
	d="
M44.119904,78.287567 
	C45.594566,78.406776 47.110298,78.904106 48.829948,79.675903 
	C47.409569,79.522133 45.785271,79.093903 44.119904,78.287567 
z"/>
<path fill="#D5F4FF" opacity="1.000000" stroke="none" 
	d="
M52.948753,10.173477 
	C52.143612,10.861919 50.934399,11.475517 49.378853,12.083994 
	C50.203243,11.418792 51.373962,10.758712 52.948753,10.173477 
z"/>
<path fill="#D5F4FF" opacity="1.000000" stroke="none" 
	d="
M77.882751,13.703869 
	C76.655128,13.645656 75.381264,13.205632 73.883698,12.500353 
	C75.052177,12.597419 76.444344,12.959739 77.882751,13.703869 
z"/>
<path fill="#D5F4FF" opacity="1.000000" stroke="none" 
	d="
M30.168362,72.266182 
	C31.542669,72.430237 33.071026,72.924057 34.805595,73.692429 
	C33.448673,73.509979 31.885542,73.052963 30.168362,72.266182 
z"/>
<path fill="#D5F4FF" opacity="1.000000" stroke="none" 
	d="
M54.066292,82.430252 
	C55.259502,82.489845 56.527332,82.912590 58.004219,83.602997 
	C56.855824,83.511566 55.498367,83.152489 54.066292,82.430252 
z"/>
<path fill="#D5F4FF" opacity="1.000000" stroke="none" 
	d="
M49.185902,80.285187 
	C50.327354,80.387688 51.615665,80.824310 53.115097,81.536224 
	C51.995068,81.414116 50.663914,81.016708 49.185902,80.285187 
z"/>
<path fill="#D5F4FF" opacity="1.000000" stroke="none" 
	d="
M57.922264,8.145290 
	C57.099255,8.828939 55.904301,9.449106 54.362743,10.065571 
	C55.194202,9.401848 56.372261,8.741829 57.922264,8.145290 
z"/>
<path fill="#D5F4FF" opacity="1.000000" stroke="none" 
	d="
M28.942184,20.154793 
	C28.410776,20.778111 27.508144,21.337612 26.281307,21.892548 
	C26.828388,21.288980 27.699673,20.689980 28.942184,20.154793 
z"/>
<path fill="#D5F4FF" opacity="1.000000" stroke="none" 
	d="
M48.006557,12.194590 
	C47.460533,12.818506 46.540703,13.365331 45.296078,13.888334 
	C45.858440,13.282175 46.745594,12.699837 48.006557,12.194590 
z"/>
<path fill="#D5F4FF" opacity="1.000000" stroke="none" 
	d="
M62.778988,7.726329 
	C61.925362,8.015981 60.864567,8.044045 59.407593,8.031392 
	C60.198215,7.815364 61.385014,7.640053 62.778988,7.726329 
z"/>
<path fill="#D5F4FF" opacity="1.000000" stroke="none" 
	d="
M96.281296,69.936600 
	C96.419518,69.347984 96.884247,68.732582 97.664932,68.064941 
	C97.523193,68.645073 97.065498,69.277443 96.281296,69.936600 
z"/>
<path fill="#D5F4FF" opacity="1.000000" stroke="none" 
	d="
M87.200722,95.326363 
	C87.757507,95.044380 88.502281,95.000824 89.618454,94.998489 
	C89.122810,95.214737 88.255760,95.389763 87.200722,95.326363 
z"/>
<path fill="#D5F4FF" opacity="1.000000" stroke="none" 
	d="
M42.182964,77.229401 
	C42.593998,77.112183 43.167637,77.256065 43.905411,77.656708 
	C43.494888,77.772476 42.920227,77.631485 42.182964,77.229401 
z"/>
<path fill="#D5F4FF" opacity="1.000000" stroke="none" 
	d="
M90.943527,94.779221 
	C90.950943,94.371284 91.262863,93.912140 91.821083,93.317688 
	C91.794273,93.697594 91.521149,94.212799 90.943527,94.779221 
z"/>
<path fill="#D5F4FF" opacity="1.000000" stroke="none" 
	d="
M85.167053,94.172607 
	C85.375145,94.077858 85.680000,94.240921 86.107803,94.638550 
	C85.908440,94.725563 85.586121,94.577988 85.167053,94.172607 
z"/>
<path fill="#99DAFD" opacity="1.000000" stroke="none" 
	d="
M75.816490,65.938423 
	C75.233421,65.522949 74.650360,65.107468 74.266510,64.266930 
	C74.642006,63.559040 74.818291,63.276215 74.994576,62.993385 
	C74.994576,62.993385 75.000000,63.000000 75.226669,62.898548 
	C75.642906,62.528519 75.832474,62.259941 76.022049,61.991364 
	C76.339569,61.888840 76.596352,61.702576 77.121948,61.113174 
	C77.735390,60.590660 77.905296,60.316811 77.961212,59.972225 
	C78.174576,59.735226 78.395576,59.505577 79.029823,59.035587 
	C79.727951,58.601601 79.912872,58.339409 79.990189,58.001320 
	C82.257057,56.474640 84.523926,54.947960 86.876266,53.945442 
	C86.961746,54.469604 86.922997,54.959492 86.922997,54.959492 
	C86.922997,54.959492 86.975471,55.005558 86.733253,55.068748 
	C86.309105,55.411903 86.127174,55.691860 85.945244,55.971817 
	C85.945244,55.971817 85.998451,55.999027 85.747635,56.067375 
	C85.315552,56.416355 85.134277,56.696987 84.953011,56.977619 
	C84.953011,56.977619 84.999847,57.000397 84.751587,57.070786 
	C84.318375,57.418129 84.133430,57.695087 83.948486,57.972046 
	C83.948486,57.972046 83.999054,57.999542 83.749298,58.069344 
	C83.315971,58.416344 83.132393,58.693539 82.948822,58.970737 
	C82.948822,58.970737 82.999001,58.999607 82.748199,59.068680 
	C82.313095,59.415119 82.128799,59.692486 81.944511,59.969852 
	C81.944511,59.969852 81.998413,59.998726 81.746521,60.065926 
	C81.310822,60.411423 81.127007,60.689716 80.943184,60.968010 
	C80.943184,60.968006 80.997131,60.999485 80.738518,61.067940 
	C80.271332,61.412815 80.062767,61.689236 79.854195,61.965660 
	C79.304947,62.431774 78.755699,62.897884 77.855751,63.735657 
	C77.317467,64.394943 77.129875,64.682571 76.942284,64.970200 
	C76.942284,64.970200 76.997635,64.998451 76.738968,65.065613 
	C76.259033,65.401321 76.037766,65.669876 75.816490,65.938423 
z"/>
<path fill="#9BDAFF" opacity="1.000000" stroke="none" 
	d="
M84.113663,43.026550 
	C84.747688,43.177940 85.381714,43.329334 86.059662,43.994141 
	C86.103577,44.507557 86.001099,44.993057 86.001099,44.993057 
	C86.001099,44.993057 85.999084,44.999237 85.769196,45.094078 
	C85.253639,45.384480 85.077187,45.652061 85.009949,45.991676 
	C85.009949,45.991676 84.996162,45.996407 84.767624,46.096420 
	C84.247704,46.383881 84.067131,46.647289 83.997360,46.986668 
	C83.997360,46.986668 83.998474,46.998383 83.766953,47.091602 
	C83.258850,47.387138 83.085670,47.656055 83.015892,47.991566 
	C83.015892,47.991566 82.994347,47.994270 82.767273,48.095356 
	C82.256676,48.389549 82.081078,48.654255 82.013397,48.990562 
	C82.013397,48.990562 81.994652,48.994640 81.766464,49.094917 
	C81.253036,49.387859 81.076599,49.652950 81.008965,49.990463 
	C81.008965,49.990463 80.996140,49.996155 80.767303,50.094536 
	C80.255920,50.389114 80.081291,50.655960 80.014595,50.993450 
	C80.014595,50.993450 79.995590,50.995670 79.769096,51.097046 
	C79.259605,51.392803 79.084251,51.658291 79.016533,51.994884 
	C79.016533,51.994884 78.995682,51.995686 78.768158,52.096573 
	C78.251717,52.386566 78.071198,52.649986 77.999092,52.987713 
	C77.999092,52.987713 77.998169,52.998180 77.767746,53.093353 
	C77.259964,53.389736 77.085670,53.657932 77.014458,53.993118 
	C77.014458,53.993118 76.995621,53.995399 76.762398,54.095047 
	C76.243713,54.392906 76.054474,54.659447 75.961464,54.994316 
	C75.018692,54.901726 74.075928,54.809132 73.320473,54.301361 
	C73.715202,53.601490 73.922615,53.316807 74.130028,53.032120 
	C74.428223,52.942856 74.666412,52.770611 75.161835,52.191589 
	C75.656578,51.583981 75.834084,51.300167 76.011581,51.016354 
	C76.011581,51.016354 76.000305,51.000305 76.238464,50.913147 
	C76.768135,50.631546 76.948601,50.362579 77.018005,50.019089 
	C77.018005,50.019089 77.000000,50.000000 77.240242,49.916107 
	C77.770493,49.634659 77.949913,49.363831 78.018745,49.019730 
	C78.018745,49.019730 78.000000,49.000000 78.240860,48.916794 
	C78.772133,48.635746 78.950882,48.364361 79.017982,48.019424 
	C79.017982,48.019424 79.000000,48.000000 79.241821,47.917648 
	C79.778069,47.640869 79.959641,47.370609 80.028381,47.024525 
	C80.028381,47.024525 80.000114,46.999847 80.243149,46.919052 
	C80.775856,46.638935 80.956375,46.367111 81.027740,46.022785 
	C81.027740,46.022785 81.000000,45.999763 81.242554,45.917847 
	C81.666428,45.562992 81.847755,45.290058 82.029083,45.017124 
	C82.029083,45.017124 81.999718,44.999142 82.241898,44.918449 
	C82.670204,44.565533 82.856323,44.293312 83.042450,44.021088 
	C83.042450,44.021088 83.000084,43.998837 83.248901,43.920792 
	C83.703026,43.570679 83.908340,43.298615 84.113663,43.026550 
z"/>
<path fill="#50B1F9" opacity="1.000000" stroke="none" 
	d="
M97.086044,24.313107 
	C97.435226,24.759043 97.743484,25.534975 97.980324,26.641918 
	C97.620979,26.196321 97.333046,25.419710 97.086044,24.313107 
z"/>
<path fill="#449CEB" opacity="1.000000" stroke="none" 
	d="
M84.220428,46.889919 
	C84.067131,46.647289 84.247704,46.383881 84.765411,46.103378 
	C84.905479,46.338840 84.722733,46.599792 84.220428,46.889919 
z"/>
<path fill="#4C9EE4" opacity="1.000000" stroke="none" 
	d="
M74.765549,63.107971 
	C74.818291,63.276215 74.642006,63.559040 74.243355,63.964729 
	C74.192825,63.799248 74.364670,63.510902 74.765549,63.107971 
z"/>
<path fill="#479BE7" opacity="1.000000" stroke="none" 
	d="
M77.187347,64.863861 
	C77.129875,64.682571 77.317467,64.394943 77.736343,63.981995 
	C77.789223,64.156952 77.610817,64.457237 77.187347,64.863861 
z"/>
<path fill="#479BE7" opacity="1.000000" stroke="none" 
	d="
M76.077240,65.863594 
	C76.037766,65.669876 76.259033,65.401321 76.725563,65.037582 
	C76.759880,65.224510 76.548935,65.506638 76.077240,65.863594 
z"/>
<path fill="#449CEB" opacity="1.000000" stroke="none" 
	d="
M77.791054,49.116592 
	C77.949913,49.363831 77.770493,49.634659 77.249771,49.925064 
	C77.096817,49.679592 77.278252,49.411442 77.791054,49.116592 
z"/>
<path fill="#449CEB" opacity="1.000000" stroke="none" 
	d="
M82.232910,48.892010 
	C82.081078,48.654255 82.256676,48.389549 82.765862,48.106121 
	C82.906525,48.340683 82.726822,48.599903 82.232910,48.892010 
z"/>
<path fill="#449CEB" opacity="1.000000" stroke="none" 
	d="
M78.790405,48.116467 
	C78.950882,48.364361 78.772133,48.635746 78.250717,48.926094 
	C78.096840,48.680134 78.277870,48.411766 78.790405,48.116467 
z"/>
<path fill="#449CEB" opacity="1.000000" stroke="none" 
	d="
M83.235992,47.890236 
	C83.085670,47.656055 83.258850,47.387138 83.761063,47.091137 
	C83.907600,47.326832 83.730736,47.590649 83.235992,47.890236 
z"/>
<path fill="#449CEB" opacity="1.000000" stroke="none" 
	d="
M79.798813,47.119125 
	C79.959641,47.370609 79.778069,47.640869 79.251511,47.926590 
	C79.097855,47.678146 79.281151,47.410099 79.798813,47.119125 
z"/>
<path fill="#4C9EE4" opacity="1.000000" stroke="none" 
	d="
M75.793480,62.092819 
	C75.832474,62.259941 75.642906,62.528519 75.223343,62.895897 
	C75.088135,62.659527 75.278656,62.392719 75.793480,62.092819 
z"/>
<path fill="#449CEB" opacity="1.000000" stroke="none" 
	d="
M80.798058,46.119373 
	C80.956375,46.367111 80.775856,46.638935 80.255280,46.933159 
	C80.099174,46.685989 80.280510,46.415287 80.798058,46.119373 
z"/>
<path fill="#449CEB" opacity="1.000000" stroke="none" 
	d="
M85.230873,45.890770 
	C85.077187,45.652061 85.253639,45.384480 85.766251,45.095474 
	C85.907303,45.329651 85.726845,45.592258 85.230873,45.890770 
z"/>
<path fill="#449CEB" opacity="1.000000" stroke="none" 
	d="
M81.799461,45.115639 
	C81.847755,45.290058 81.666428,45.562992 81.253906,45.931705 
	C81.098976,45.684978 81.281349,45.413868 81.799461,45.115639 
z"/>
<path fill="#449CEB" opacity="1.000000" stroke="none" 
	d="
M86.161232,44.937698 
	C86.001099,44.993057 86.103577,44.507557 86.224579,44.290974 
	C86.639824,44.366550 86.631752,44.635868 86.161232,44.937698 
z"/>
<path fill="#449CEB" opacity="1.000000" stroke="none" 
	d="
M82.810318,44.118362 
	C82.856323,44.293312 82.670204,44.565533 82.250526,44.933300 
	C82.204048,44.757774 82.391121,44.486706 82.810318,44.118362 
z"/>
<path fill="#449CEB" opacity="1.000000" stroke="none" 
	d="
M83.866821,43.116669 
	C83.908340,43.298615 83.703026,43.570679 83.259079,43.942444 
	C83.220284,43.763687 83.420135,43.485237 83.866821,43.116669 
z"/>
<path fill="#479BE7" opacity="1.000000" stroke="none" 
	d="
M87.101837,54.903618 
	C86.922997,54.959492 86.961746,54.469604 87.041367,54.237022 
	C87.256584,54.194519 87.408890,54.376144 87.513115,54.582104 
	C87.532997,54.621380 87.363052,54.756725 87.101837,54.903618 
z"/>
<path fill="#449CEB" opacity="1.000000" stroke="none" 
	d="
M80.234070,50.892853 
	C80.081291,50.655960 80.255920,50.389114 80.764481,50.100967 
	C80.906776,50.335430 80.727791,50.596504 80.234070,50.892853 
z"/>
<path fill="#449CEB" opacity="1.000000" stroke="none" 
	d="
M75.777878,51.125641 
	C75.834084,51.300167 75.656578,51.583981 75.252670,51.987045 
	C75.198906,51.815838 75.371544,51.525379 75.777878,51.125641 
z"/>
<path fill="#449CEB" opacity="1.000000" stroke="none" 
	d="
M79.235214,51.894146 
	C79.084251,51.658291 79.259605,51.392803 79.768051,51.106560 
	C79.906982,51.338966 79.727112,51.598534 79.235214,51.894146 
z"/>
<path fill="#449CEB" opacity="1.000000" stroke="none" 
	d="
M78.221344,52.890961 
	C78.071198,52.649986 78.251717,52.386566 78.767731,52.106995 
	C78.905403,52.342628 78.721657,52.601852 78.221344,52.890961 
z"/>
<path fill="#449CEB" opacity="1.000000" stroke="none" 
	d="
M83.534470,52.552032 
	C83.479004,52.585335 83.589943,52.518730 83.534470,52.552032 
z"/>
<path fill="#449CEB" opacity="1.000000" stroke="none" 
	d="
M73.871307,53.130203 
	C73.922615,53.316807 73.715202,53.601490 73.272964,54.015236 
	C73.229622,53.838959 73.421104,53.533623 73.871307,53.130203 
z"/>
<path fill="#449CEB" opacity="1.000000" stroke="none" 
	d="
M77.234398,53.891205 
	C77.085670,53.657932 77.259964,53.389736 77.762520,53.093857 
	C77.907028,53.328121 77.729233,53.591488 77.234398,53.891205 
z"/>
<path fill="#449CEB" opacity="1.000000" stroke="none" 
	d="
M81.229340,49.891937 
	C81.076599,49.652950 81.253036,49.387859 81.764412,49.104294 
	C81.905685,49.339565 81.725410,49.599571 81.229340,49.891937 
z"/>
<path fill="#449CEB" opacity="1.000000" stroke="none" 
	d="
M76.191055,54.899231 
	C76.054474,54.659447 76.243713,54.392906 76.761009,54.104431 
	C76.900581,54.348812 76.709854,54.612141 76.191055,54.899231 
z"/>
<path fill="#449CEB" opacity="1.000000" stroke="none" 
	d="
M76.790863,50.115509 
	C76.948601,50.362579 76.768135,50.631546 76.246567,50.918724 
	C76.096825,50.675060 76.279221,50.408550 76.790863,50.115509 
z"/>
<path fill="#479BE7" opacity="1.000000" stroke="none" 
	d="
M86.181870,55.874565 
	C86.127174,55.691860 86.309105,55.411903 86.727509,55.034313 
	C86.782143,55.216892 86.600319,55.497101 86.181870,55.874565 
z"/>
<path fill="#479BE7" opacity="1.000000" stroke="none" 
	d="
M85.188026,56.879112 
	C85.134277,56.696987 85.315552,56.416355 85.734253,56.040661 
	C85.788803,56.223934 85.605919,56.502270 85.188026,56.879112 
z"/>
<path fill="#479BE7" opacity="1.000000" stroke="none" 
	d="
M84.184265,57.876377 
	C84.133430,57.695087 84.318375,57.418129 84.740494,57.047218 
	C84.791786,57.229076 84.605911,57.504890 84.184265,57.876377 
z"/>
<path fill="#449CEB" opacity="1.000000" stroke="none" 
	d="
M79.769928,58.099640 
	C79.912872,58.339409 79.727951,58.601601 79.204102,58.871902 
	C79.084389,58.641838 79.276688,58.389187 79.769928,58.099640 
z"/>
<path fill="#479BE7" opacity="1.000000" stroke="none" 
	d="
M83.184456,58.874893 
	C83.132393,58.693539 83.315971,58.416344 83.735840,58.043907 
	C83.788116,58.225464 83.604103,58.502254 83.184456,58.874893 
z"/>
<path fill="#479BE7" opacity="1.000000" stroke="none" 
	d="
M82.180794,59.874676 
	C82.128799,59.692486 82.313095,59.415119 82.734108,59.043404 
	C82.786240,59.225868 82.601662,59.502682 82.180794,59.874676 
z"/>
<path fill="#449CEB" opacity="1.000000" stroke="none" 
	d="
M77.747162,60.087151 
	C77.905296,60.316811 77.735390,60.590660 77.227066,60.896175 
	C77.087273,60.671673 77.264099,60.406170 77.747162,60.087151 
z"/>
<path fill="#479BE7" opacity="1.000000" stroke="none" 
	d="
M81.179779,60.872513 
	C81.127007,60.689716 81.310822,60.411423 81.732315,60.038857 
	C81.785454,60.222065 81.600906,60.499542 81.179779,60.872513 
z"/>
<path fill="#479BE7" opacity="1.000000" stroke="none" 
	d="
M80.107964,61.880039 
	C80.062767,61.689236 80.271332,61.412815 80.724472,61.040054 
	C80.766602,61.227283 80.564171,61.510849 80.107964,61.880039 
z"/>
</svg>